<?xml version="1.0" encoding="utf-8"?>
<!-- Generator: Adobe Illustrator 18.1.1, SVG Export Plug-In . SVG Version: 6.00 Build 0)  -->
<svg version="1.1" id="Calque_1" xmlns="http://www.w3.org/2000/svg" xmlns:xlink="http://www.w3.org/1999/xlink" x="0px" y="0px"
	 viewBox="0 0 40 70" enable-background="new 0 0 40 70" xml:space="preserve">
<g>
	<path d="M32.3,67h-7.6c-1.3,0-2.5-0.2-3.6-0.6c-1.1-0.4-2.1-1-3-1.9c-0.8-0.9-1.5-2-2-3.3c-0.5-1.3-0.7-2.9-0.7-4.8V44.1
		c0-1.1-0.3-2-1-2.7c-0.6-0.7-1.4-1.2-2.3-1.5c-0.9-0.3-1.7-0.6-2.6-0.6c-0.9-0.1-1.5-0.1-1.9-0.1v-8.2c0.4,0,1.1,0,1.9-0.1
		c0.9-0.1,1.7-0.3,2.6-0.6c0.9-0.3,1.6-0.8,2.3-1.5c0.6-0.7,1-1.6,1-2.7V13.5c0-1.9,0.2-3.5,0.7-4.8c0.5-1.3,1.1-2.4,1.9-3.2
		c0.8-0.8,1.8-1.5,3-1.8C22.2,3.2,23.4,3,24.8,3h7.6v8.2h-3.5c-1.1,0-2,0.1-2.6,0.4c-0.6,0.3-1.1,0.7-1.4,1.1
		c-0.3,0.5-0.5,1-0.6,1.5c-0.1,0.6-0.1,1.1-0.1,1.5v11.6c0,1.7-0.2,3-0.7,4c-0.5,1-1.1,1.7-1.8,2.2c-0.7,0.5-1.5,0.8-2.3,1
		c-0.8,0.2-1.6,0.3-2.4,0.3v0.1c0.8,0,1.6,0.1,2.4,0.3c0.8,0.1,1.6,0.5,2.3,1c0.7,0.5,1.3,1.2,1.8,2.2c0.5,1,0.7,2.3,0.7,4v11.7
		c0,0.5,0,1,0.1,1.5c0.1,0.6,0.3,1.1,0.6,1.5c0.3,0.5,0.8,0.8,1.4,1.1c0.6,0.3,1.5,0.4,2.6,0.4h3.5V67z"/>
</g>
</svg>
